<?xml version="1.0" encoding="UTF-8"?>
<svg width="41px" height="36px" viewBox="0 0 41 36" version="1.1" xmlns="http://www.w3.org/2000/svg" xmlns:xlink="http://www.w3.org/1999/xlink">
    <!-- Generator: Sketch 51.2 (57519) - http://www.bohemiancoding.com/sketch -->
    <title>photo</title>
    <desc>Created with Sketch.</desc>
    <defs></defs>
    <g id="Page-1" stroke="none" stroke-width="1" fill="none" fill-rule="evenodd" opacity="0.4">
        <g id="iCarLabs---Contribute" transform="translate(-494.000000, -683.000000)" fill="#666A6C" fill-rule="nonzero">
            <g id="modal" transform="translate(410.000000, 90.000000)">
                <g id="screenshot" transform="translate(40.000000, 552.000000)">
                    <g id="photo" transform="translate(44.000000, 41.000000)">
                        <circle id="Oval" cx="15.2903226" cy="11.6516129" r="2.78709677"></circle>
                        <path d="M38.1677419,21.9096774 C36.8516129,20.6709677 35.1870968,19.8580645 33.3677419,19.6258065 L33.3677419,5.45806452 C33.3677419,3.9483871 32.7483871,2.59354839 31.7806452,1.58709677 C30.7741935,0.580645161 29.4193548,0 27.9096774,0 L5.45806452,0 C3.9483871,0 2.59354839,0.619354839 1.58709677,1.58709677 C0.580645161,2.59354839 0,3.9483871 0,5.45806452 L0,23.3032258 L0,24.9677419 L0,28.5677419 C0,30.0774194 0.619354839,31.4322581 1.58709677,32.4387097 C2.59354839,33.4451613 3.9483871,34.0258065 5.45806452,34.0258065 L27.1741935,34.0258065 C28.6064516,35.1870968 30.3870968,35.9225806 32.3612903,35.9225806 C34.6451613,35.9225806 36.6967742,34.9935484 38.1677419,33.5225806 C39.6387097,32.0516129 40.5677419,30 40.5677419,27.716129 C40.5677419,25.4322581 39.6387097,23.3806452 38.1677419,21.9096774 Z M2.0516129,5.45806452 C2.0516129,4.52903226 2.43870968,3.67741935 3.05806452,3.05806452 C3.67741935,2.43870968 4.52903226,2.0516129 5.45806452,2.0516129 L27.9096774,2.0516129 C28.8387097,2.0516129 29.6903226,2.43870968 30.3096774,3.05806452 C30.9290323,3.67741935 31.316129,4.52903226 31.316129,5.45806452 L31.316129,17.5354839 L25.5870968,11.8451613 C25.2,11.4580645 24.5419355,11.4193548 24.116129,11.8451613 L15.483871,20.516129 L9.63870968,14.6322581 C9.2516129,14.2451613 8.59354839,14.2064516 8.16774194,14.6322581 L2.0516129,20.8258065 L2.0516129,5.45806452 Z M5.41935484,32.0129032 L5.41935484,31.9741935 C4.49032258,31.9741935 3.63870968,31.5870968 3.01935484,30.9677419 C2.43870968,30.3483871 2.0516129,29.4967742 2.0516129,28.5677419 L2.0516129,24.9677419 L2.0516129,23.7290323 L8.94193548,16.8387097 L14.7870968,22.683871 C15.1741935,23.0709677 15.8322581,23.0709677 16.2580645,22.683871 L24.8903226,14.0129032 L30.5419355,19.7032258 C30.4258065,19.7419355 30.3096774,19.7806452 30.1935484,19.8193548 C30.0387097,19.8580645 29.883871,19.8967742 29.6903226,19.9741935 C29.5354839,20.0129032 29.3806452,20.0903226 29.2258065,20.1290323 C29.1096774,20.1677419 29.0322581,20.2064516 28.916129,20.283871 C28.7612903,20.3612903 28.6451613,20.4 28.5290323,20.4774194 C28.3354839,20.5935484 28.1419355,20.7096774 27.9483871,20.8258065 C27.8322581,20.9032258 27.7548387,20.9419355 27.6387097,21.0193548 C27.5612903,21.0580645 27.5225806,21.0967742 27.4451613,21.1354839 C27.0967742,21.3677419 26.7870968,21.6387097 26.516129,21.9483871 C25.0451613,23.4193548 24.116129,25.4709677 24.116129,27.7548387 C24.116129,28.3354839 24.1935484,28.8774194 24.3096774,29.4580645 C24.3483871,29.6129032 24.3870968,29.7290323 24.4258065,29.883871 C24.5419355,30.2709677 24.6580645,30.6580645 24.8129032,31.0451613 L24.8129032,31.083871 C24.9677419,31.3935484 25.1225806,31.7419355 25.316129,32.0129032 L5.41935484,32.0129032 Z M36.6580645,32.0516129 C35.5354839,33.1741935 34.0258065,33.8322581 32.3225806,33.8322581 C30.6967742,33.8322581 29.1870968,33.1741935 28.1032258,32.1290323 C27.9483871,31.9741935 27.7935484,31.7806452 27.6387097,31.6258065 C27.5225806,31.5096774 27.4064516,31.3548387 27.2903226,31.2387097 C27.1354839,31.0451613 27.0193548,30.8129032 26.9032258,30.5806452 C26.8258065,30.4258065 26.7483871,30.3096774 26.6709677,30.1548387 C26.5935484,29.9612903 26.516129,29.7290323 26.4774194,29.4967742 C26.4387097,29.3419355 26.3612903,29.1483871 26.3225806,28.9935484 C26.2451613,28.6064516 26.2064516,28.1806452 26.2064516,27.7548387 C26.2064516,26.0516129 26.9032258,24.5419355 27.9870968,23.4193548 C29.1096774,22.2967742 30.6193548,21.6387097 32.3225806,21.6387097 C34.0258065,21.6387097 35.5354839,22.3354839 36.6580645,23.4193548 C37.7806452,24.5032258 38.4387097,26.0516129 38.4387097,27.7548387 C38.4387097,29.4193548 37.7419355,30.9290323 36.6580645,32.0516129 Z" id="Shape"></path>
                        <path d="M35.6903226,26.6709677 L33.3290323,26.6709677 L33.3290323,24.3096774 C33.3290323,23.7290323 32.8645161,23.2645161 32.283871,23.2645161 C31.7032258,23.2645161 31.2387097,23.7290323 31.2387097,24.3096774 L31.2387097,26.6709677 L28.8774194,26.6709677 C28.2967742,26.6709677 27.8322581,27.1354839 27.8322581,27.716129 C27.8322581,28.2967742 28.2967742,28.7612903 28.8774194,28.7612903 L31.2387097,28.7612903 L31.2387097,31.1225806 C31.2387097,31.7032258 31.7032258,32.1677419 32.283871,32.1677419 C32.8645161,32.1677419 33.3290323,31.7032258 33.3290323,31.1225806 L33.3290323,28.7612903 L35.6903226,28.7612903 C36.2709677,28.7612903 36.7354839,28.2967742 36.7354839,27.716129 C36.7354839,27.1354839 36.2709677,26.6709677 35.6903226,26.6709677 Z" id="Shape"></path>
                    </g>
                </g>
            </g>
        </g>
    </g>
</svg>